<?xml version="1.0" encoding="utf-8"?>
<!-- Generator: Adobe Illustrator 19.2.1, SVG Export Plug-In . SVG Version: 6.00 Build 0)  -->
<svg version="1.1" id="Layer_1" xmlns="http://www.w3.org/2000/svg" xmlns:xlink="http://www.w3.org/1999/xlink" x="0px" y="0px"
	 viewBox="0 0 400 400" style="enable-background:new 0 0 400 400;" xml:space="preserve">
<path d="M373.3,181.6l22.6-23.1c0,0,0-1.9,0-2.5c0-0.6-107.1,0-107.1,0L220.1,54.8h-1.2l-9.1,19.4v12.3l64,95.1l2.5,1L373.3,181.6z"
	/>
<path d="M27.6,181.6L5,158.4c0,0,0-1.9,0-2.5c0-0.6,106.5,0,106.5,0l68.4-101.2h1.2l9.1,19.4v12.3l-63.7,95.1l-2.4,1L27.6,181.6z"/>
<polygon points="199.9,308.5 201.3,308.5 273.5,201.8 275.4,200.6 375.1,200.6 399.5,222.1 397.3,223.6 294,223.5 199.9,369.7 "/>
<polygon points="199.9,308.5 198.6,308.5 126.4,201.8 124.5,200.6 24.8,200.6 0.5,222.1 2.7,223.6 105.9,223.5 199.9,369.7 "/>
<polygon points="143.2,185.2 199,103.9 201.8,103.9 256.8,185.2 256.8,196.5 201.2,277.3 199.9,277.3 143.2,196.5 "/>
</svg>
