  0
SECTION
  2
ENTITIES
  0
3DFACE
 10
-4.493982
 20
2.631323
 30
-5.151099
 11
-4.493982
 21
2.631323
 31
5.369934
 12
-2.682971
 22
2.631323
 32
5.369934
 13
-2.682971
 23
2.631323
 33
-5.151099
  0
3DFACE
 10
-5
 20
0
 30
-6.274701
 11
-5
 21
0
 31
6.274695
 12
-4.493982
 22
2.631323
 32
5.369934
 13
-4.493982
 23
2.631323
 33
-5.151099
  0
3DFACE
 10
-5
 20
0
 30
-6.274701
 11
-4.493982
 21
2.631323
 31
-5.151099
 12
-2.682971
 22
2.631323
 32
-5.151099
 13
-2.109479
 23
0
 33
-6.274701
  0
3DFACE
 10
-4.493982
 20
2.631323
 30
5.369934
 11
-5
 21
0
 31
6.274695
 12
-2.109479
 22
0
 32
6.274695
 13
-2.682971
 23
2.631323
 33
5.369934
  0
3DFACE
 10
5
 20
1.000977E-03
 30
6.353143
 11
5
 21
1.000977E-03
 31
-6.196259
 12
4.426507
 22
2.632318
 32
-5.072662
 13
4.426507
 23
2.632318
 33
5.448377
  0
3DFACE
 10
2.597589
 20
2.632318
 30
-5.072662
 11
2.597589
 21
2.632318
 31
5.448377
 12
4.426507
 22
2.632318
 32
5.448377
 13
4.426507
 23
2.632318
 33
-5.072662
  0
3DFACE
 10
2.091565
 20
1.000977E-03
 30
-6.196259
 11
2.597589
 21
2.632318
 31
-5.072662
 12
4.426507
 22
2.632318
 32
-5.072662
 13
5
 23
1.000977E-03
 33
-6.196259
  0
3DFACE
 10
2.597589
 20
2.632318
 30
5.448377
 11
2.091565
 21
1.000977E-03
 31
6.353143
 12
5
 22
1.000977E-03
 32
6.353143
 13
4.426507
 23
2.632318
 33
5.448377
  0
3DFACE
 10
1.5487
 20
3.103613
 30
3.888574
 11
1.5487
 21
3.103613
 31
1.026849
 12
1.5487
 22
4.621686
 32
1.026849
 13
1.5487
 23
4.621686
 33
3.888574
  0
3DFACE
 10
1.5487
 20
3.103613
 30
1.026849
 11
0
 21
3.103613
 31
2.474548
 12
0.9771606
 22
4.621686
 32
2.474548
 13
1.5487
 23
4.621686
 33
1.026849
  0
3DFACE
 10
1.5487
 20
4.621686
 30
3.888574
 11
1.5487
 21
4.621686
 31
1.026849
 12
0.9771606
 22
4.621686
 32
2.474548
 13
0.9771606
 23
4.621686
 33
3.888574
  0
3DFACE
 10
-1.515027
 20
4.65542
 30
3.854907
 11
-1.515027
 21
4.65542
 31
0.9931824
 12
-1.515027
 22
3.137347
 32
0.9931824
 13
-1.515027
 23
3.137347
 33
3.854907
  0
3DFACE
 10
-1.515027
 20
4.65542
 30
0.9931824
 11
-0.9434997
 21
4.65542
 31
2.440887
 12
0
 22
3.137347
 32
2.440887
 13
-1.515027
 23
3.137347
 33
0.9931824
  0
3DFACE
 10
-1.515027
 20
4.65542
 30
3.854907
 11
-0.9434997
 21
4.65542
 31
3.854907
 12
-0.9434997
 22
4.65542
 32
2.440887
 13
-1.515027
 23
4.65542
 33
0.9931824
  0
3DFACE
 10
2.226508
 20
3.171088
 30
5.369934
 11
2.226508
 21
3.171088
 31
-3.518237
 12
-2.024097
 22
3.171088
 32
-3.518237
 13
-2.024097
 23
3.171088
 33
5.369934
  0
3DFACE
 10
2.593463
 20
0
 30
-4.790357
 11
-2.523962
 21
0
 31
-4.790357
 12
-2.024097
 22
3.171088
 32
-3.518237
 13
2.226508
 23
3.171088
 33
-3.518237
  0
3DFACE
 10
-2.523962
 20
0
 30
5.937347
 11
-2.024097
 21
3.171088
 31
5.369934
 12
-2.024097
 22
3.171088
 32
-3.518237
 13
-2.523962
 23
0
 33
-4.790357
  0
3DFACE
 10
-2.523962
 20
0
 30
5.937347
 11
2.593463
 21
0
 31
5.937347
 12
2.226508
 22
3.171088
 32
5.369934
 13
-2.024097
 23
3.171088
 33
5.369934
  0
3DFACE
 10
2.593463
 20
0
 30
-4.790357
 11
2.226508
 21
3.171088
 31
-3.518237
 12
2.226508
 22
3.171088
 32
5.369934
 13
2.593463
 23
0
 33
5.937347
  0
3DFACE
 10
2.597589
 20
2.632318
 30
-5.072662
 11
2.091565
 21
1.000977E-03
 31
-6.196259
 12
2.091565
 22
1.000977E-03
 32
6.353143
 13
2.597589
 23
2.632318
 33
5.448377
  0
3DFACE
 10
-2.109479
 20
0
 30
-6.274701
 11
-2.682971
 21
2.631323
 31
-5.151099
 12
-2.682971
 22
2.631323
 32
5.369934
 13
-2.109479
 23
0
 33
6.274695
  0
3DFACE
 10
-6.4
 20
0
 30
-6.4
 11
6.4
 21
0
 31
-6.4
 12
6.4
 22
0
 32
6.4
 13
-6.4
 23
0
 33
6.4
  0
3DFACE
 10
1.239887
 20
5.949725
 30
3.438715
 11
-1.27746
 21
5.949725
 31
3.438715
 12
-0.6385742
 22
3.244513
 32
3.95426
 13
0.6388855
 23
3.244513
 33
3.95426
  0
3DFACE
 10
-1.27746
 20
5.949725
 30
2.220062
 11
1.239887
 21
5.949725
 31
2.220062
 12
0.6388855
 22
3.244513
 32
2.220062
 13
-0.6385742
 23
3.244513
 33
2.220062
  0
3DFACE
 10
1.239887
 20
5.949725
 30
2.220062
 11
1.239887
 21
5.949725
 31
3.438715
 12
0.6388855
 22
3.244513
 32
3.95426
 13
0.6388855
 23
3.244513
 33
2.220062
  0
3DFACE
 10
-1.27746
 20
5.949725
 30
3.438715
 11
1.239887
 21
5.949725
 31
3.438715
 12
1.239887
 22
5.949725
 32
2.220062
 13
-1.27746
 23
5.949725
 33
2.220062
  0
3DFACE
 10
-0.6385742
 20
3.244513
 30
2.220062
 11
-0.6385742
 21
3.244513
 31
3.95426
 12
-1.27746
 22
5.949725
 32
3.438715
 13
-1.27746
 23
5.949725
 33
2.220062
  0
3DFACE
 10
0.8238037
 20
6.412988
 30
0.5115478
 11
0.8238037
 21
6.412988
 31
2.728516
 12
0.8238037
 22
4.764105
 32
2.728516
 13
0.8238037
 23
4.764105
 33
0.5115478
  0
3DFACE
 10
-0.7792786
 20
6.412988
 30
2.728516
 11
0.8238037
 21
6.412988
 31
2.728516
 12
0.8238037
 22
6.412988
 32
0.5115478
 13
-0.7792786
 23
6.412988
 33
0.5115478
  0
3DFACE
 10
-0.7792786
 20
4.764105
 30
0.5115478
 11
-0.7792786
 21
4.764105
 31
2.728516
 12
-0.7792786
 22
6.412988
 32
2.728516
 13
-0.7792786
 23
6.412988
 33
0.5115478
  0
3DFACE
 10
-0.3252746
 20
5.748865
 30
-5.394433
 11
-0.3252746
 21
5.748865
 31
1.211462
 12
-3.02124E-03
 22
6.071106
 32
1.211462
 13
-3.02124E-03
 23
6.071106
 33
-5.394433
  0
3DFACE
 10
0.3192078
 20
5.748865
 30
1.211462
 11
0.3192078
 21
5.748865
 31
-5.394433
 12
-3.02124E-03
 22
6.071106
 32
-5.394433
 13
-3.02124E-03
 23
6.071106
 33
1.211462
  0
3DFACE
 10
2.999878E-02
 20
5.979999
 30
-7
 11
0.5299988
 21
5.979999
 31
-8
 12
2.999878E-02
 22
5.979999
 32
-13
 13
-0.4700012
 23
5.979999
 33
-8
  0
3DFACE
 10
2.999878E-02
 20
5.979999
 30
-7
 11
-0.4700012
 21
5.979999
 31
-8
 12
2.999878E-02
 22
5.979999
 32
-13
 13
0.5299988
 23
5.979999
 33
-8
  0
3DFACE
 10
2.999878E-02
 20
5.979999
 30
-7
 11
2.999878E-02
 21
6.479999
 31
-8
 12
2.999878E-02
 22
5.979999
 32
-13
 13
2.999878E-02
 23
5.479999
 33
-8
  0
3DFACE
 10
2.999878E-02
 20
5.979999
 30
-7
 11
2.999878E-02
 21
5.479999
 31
-8
 12
2.999878E-02
 22
5.979999
 32
-13
 13
2.999878E-02
 23
6.479999
 33
-8
  0
3DFACE
 10
0.1024536
 20
5.321148
 30
-5.394433
 11
0.1024536
 21
5.321148
 31
1.211462
 12
0.4246887
 22
5.64339
 32
1.211462
 13
0.4246887
 23
5.64339
 33
-5.394433
  0
3DFACE
 10
0.746936
 20
5.321148
 30
1.211462
 11
0.746936
 21
5.321148
 31
-5.394433
 12
0.4246887
 22
5.64339
 32
-5.394433
 13
0.4246887
 23
5.64339
 33
1.211462
  0
3DFACE
 10
0.6200012
 20
5.220001
 30
-7
 11
1.120001
 21
5.220001
 31
-8
 12
0.6200012
 22
5.220001
 32
-13
 13
0.1200012
 23
5.220001
 33
-8
  0
3DFACE
 10
0.6200012
 20
5.220001
 30
-7
 11
0.1200012
 21
5.220001
 31
-8
 12
0.6200012
 22
5.220001
 32
-13
 13
1.120001
 23
5.220001
 33
-8
  0
3DFACE
 10
0.6200012
 20
5.220001
 30
-7
 11
0.6200012
 21
5.720001
 31
-8
 12
0.6200012
 22
5.220001
 32
-13
 13
0.6200012
 23
4.720001
 33
-8
  0
3DFACE
 10
0.6200012
 20
5.220001
 30
-7
 11
0.6200012
 21
4.720001
 31
-8
 12
0.6200012
 22
5.220001
 32
-13
 13
0.6200012
 23
5.720001
 33
-8
  0
3DFACE
 10
-0.7529846
 20
5.278375
 30
-5.394433
 11
-0.7529846
 21
5.278375
 31
1.211462
 12
-0.4307434
 22
5.600628
 32
1.211462
 13
-0.4307434
 23
5.600628
 33
-5.394433
  0
3DFACE
 10
-0.1085083
 20
5.278375
 30
1.211462
 11
-0.1085083
 21
5.278375
 31
-5.394433
 12
-0.4307434
 22
5.600628
 32
-5.394433
 13
-0.4307434
 23
5.600628
 33
1.211462
  0
3DFACE
 10
-0.6
 20
5.179999
 30
-7
 11
-0.1
 21
5.179999
 31
-8
 12
-0.6
 22
5.179999
 32
-13
 13
-1.1
 23
5.179999
 33
-8
  0
3DFACE
 10
-0.6
 20
5.179999
 30
-7
 11
-1.1
 21
5.179999
 31
-8
 12
-0.6
 22
5.179999
 32
-13
 13
-0.1
 23
5.179999
 33
-8
  0
3DFACE
 10
-0.6
 20
5.179999
 30
-7
 11
-0.6
 21
5.679999
 31
-8
 12
-0.6
 22
5.179999
 32
-13
 13
-0.6
 23
4.679999
 33
-8
  0
3DFACE
 10
-0.6
 20
5.179999
 30
-7
 11
-0.6
 21
4.679999
 31
-8
 12
-0.6
 22
5.179999
 32
-13
 13
-0.6
 23
5.679999
 33
-8
 0
ENDSEC
 0
EOF
